<?xml version="1.0" encoding="UTF-8"?>
<svg id="Capa_1" data-name="Capa 1" xmlns="http://www.w3.org/2000/svg" viewBox="0 0 170.08 170.08">
  <defs>
    <style>
      .cls-1 {
        fill: #098136;
      }

      .cls-1, .cls-2, .cls-3 {
        stroke-width: 0px;
      }

      .cls-2 {
        fill: #c7d400;
      }

      .cls-3 {
        fill: #43ab34;
      }
    </style>
  </defs>
  <path class="cls-3" d="m100.99,58.96c9.08,1.48,17.72.63,24.64-2.17l-4.27,65.61-25.02,10.52-.11.05-4.6-4.16-10.92-9.87-3.8-3.43.2-.48,23.88-56.07Z"/>
  <polygon class="cls-1" points="44.4 54.82 56.62 28.1 72.42 45.71 44.4 55.86 43.83 56.06 44.4 54.82"/>
  <polygon class="cls-3" points="96.67 163.36 44.4 137.91 44.4 118.94 74.68 118.94 75.23 119.44 92.12 134.7 92.72 135.24 93.21 138.14 97.32 162.51 97.54 163.79 96.67 163.36"/>
  <path class="cls-2" d="m72.71,115.03h-28.31v-55.78l30.54-10.86.51-.18c4.59,3.46,10.06,6.37,16.19,8.43,1.77.59,3.54,1.1,5.3,1.51l-23.21,54.48-1.02,2.4Z"/>
  <path class="cls-3" d="m60.88,22.86l23.46-13.98,42.11,35.29-.52,7.9c-9.29,3.86-21.79,4.16-34.29-.04-4.25-1.42-8.18-3.26-11.73-5.4-1.07-.66-2.11-1.33-3.11-2.04l-18.25-20.34,2.33-1.39Z"/>
  <polygon class="cls-1" points="96.96 136.57 121.1 126.42 120.75 131.8 100.61 158.21 97.45 139.52 96.96 136.57"/>
</svg>